<mxfile host="app.diagrams.net" agent="Mozilla/5.0 (Windows NT 10.0; Win64; x64) AppleWebKit/537.36 (KHTML, like Gecko) Chrome/141.0.0.0 Safari/537.36" version="28.2.7">
  <diagram name="Страница — 1" id="V99HsGvfmy2phkvl3Ra6">
    <mxGraphModel dx="1358" dy="715" grid="1" gridSize="10" guides="1" tooltips="1" connect="1" arrows="1" fold="1" page="1" pageScale="1" pageWidth="827" pageHeight="1169" math="0" shadow="0">
      <root>
        <mxCell id="0" />
        <mxCell id="1" parent="0" />
        <mxCell id="PjHwkr3gBRXGpi1NP0Q_-1" value="регистр A" style="rounded=0;whiteSpace=wrap;html=1;" vertex="1" parent="1">
          <mxGeometry x="280" y="280" width="90" height="50" as="geometry" />
        </mxCell>
        <mxCell id="PjHwkr3gBRXGpi1NP0Q_-2" value="регистр B" style="rounded=0;whiteSpace=wrap;html=1;" vertex="1" parent="1">
          <mxGeometry x="280" y="200" width="90" height="50" as="geometry" />
        </mxCell>
        <mxCell id="PjHwkr3gBRXGpi1NP0Q_-3" value="Control unit&lt;div&gt;(IDLE, WORK)&lt;/div&gt;" style="rounded=0;whiteSpace=wrap;html=1;" vertex="1" parent="1">
          <mxGeometry x="260" y="80" width="120" height="65" as="geometry" />
        </mxCell>
        <mxCell id="PjHwkr3gBRXGpi1NP0Q_-15" value="ctr" style="rounded=0;whiteSpace=wrap;html=1;" vertex="1" parent="1">
          <mxGeometry x="364" y="440" width="50" height="50" as="geometry" />
        </mxCell>
        <mxCell id="PjHwkr3gBRXGpi1NP0Q_-17" value="&amp;lt;&amp;lt;" style="rounded=0;whiteSpace=wrap;html=1;" vertex="1" parent="1">
          <mxGeometry x="464" y="390" width="20" height="20" as="geometry" />
        </mxCell>
        <mxCell id="PjHwkr3gBRXGpi1NP0Q_-18" value="comporator (7)" style="rounded=0;whiteSpace=wrap;html=1;" vertex="1" parent="1">
          <mxGeometry x="494" y="550" width="100" height="30" as="geometry" />
        </mxCell>
        <mxCell id="PjHwkr3gBRXGpi1NP0Q_-19" value="регистр y" style="rounded=0;whiteSpace=wrap;html=1;" vertex="1" parent="1">
          <mxGeometry x="280" y="590" width="90" height="52.5" as="geometry" />
        </mxCell>
        <mxCell id="PjHwkr3gBRXGpi1NP0Q_-21" value="регистр part_res" style="rounded=0;whiteSpace=wrap;html=1;" vertex="1" parent="1">
          <mxGeometry x="280" y="359" width="90" height="50" as="geometry" />
        </mxCell>
        <mxCell id="PjHwkr3gBRXGpi1NP0Q_-25" value="" style="endArrow=classic;html=1;rounded=0;exitX=1;exitY=0.25;exitDx=0;exitDy=0;fillColor=#d80073;strokeColor=#A50040;" edge="1" parent="1" source="PjHwkr3gBRXGpi1NP0Q_-3">
          <mxGeometry width="50" height="50" relative="1" as="geometry">
            <mxPoint x="440" y="190" as="sourcePoint" />
            <mxPoint x="430" y="96" as="targetPoint" />
          </mxGeometry>
        </mxCell>
        <mxCell id="PjHwkr3gBRXGpi1NP0Q_-26" value="cs" style="text;html=1;whiteSpace=wrap;strokeColor=none;fillColor=none;align=center;verticalAlign=middle;rounded=0;fontColor=light-dark(#000000,#FEA9DF);" vertex="1" parent="1">
          <mxGeometry x="380" y="80" width="30" height="10" as="geometry" />
        </mxCell>
        <mxCell id="PjHwkr3gBRXGpi1NP0Q_-30" value="start_i" style="text;html=1;whiteSpace=wrap;strokeColor=none;fillColor=none;align=center;verticalAlign=middle;rounded=0;fontColor=light-dark(#000000,#0000FF);" vertex="1" parent="1">
          <mxGeometry x="190" y="50" width="50" height="30" as="geometry" />
        </mxCell>
        <mxCell id="PjHwkr3gBRXGpi1NP0Q_-31" value="" style="endArrow=classic;html=1;rounded=0;entryX=0;entryY=0.5;entryDx=0;entryDy=0;" edge="1" parent="1" target="PjHwkr3gBRXGpi1NP0Q_-2">
          <mxGeometry width="50" height="50" relative="1" as="geometry">
            <mxPoint x="170" y="225" as="sourcePoint" />
            <mxPoint x="200" y="225" as="targetPoint" />
          </mxGeometry>
        </mxCell>
        <mxCell id="PjHwkr3gBRXGpi1NP0Q_-32" value="a_bi" style="text;html=1;whiteSpace=wrap;strokeColor=none;fillColor=none;align=center;verticalAlign=middle;rounded=0;" vertex="1" parent="1">
          <mxGeometry x="120" y="200" width="50" height="30" as="geometry" />
        </mxCell>
        <mxCell id="PjHwkr3gBRXGpi1NP0Q_-33" value="" style="endArrow=classic;html=1;rounded=0;entryX=0;entryY=0.5;entryDx=0;entryDy=0;" edge="1" parent="1" target="PjHwkr3gBRXGpi1NP0Q_-1">
          <mxGeometry width="50" height="50" relative="1" as="geometry">
            <mxPoint x="170" y="305" as="sourcePoint" />
            <mxPoint x="200" y="305" as="targetPoint" />
          </mxGeometry>
        </mxCell>
        <mxCell id="PjHwkr3gBRXGpi1NP0Q_-34" value="b_bi" style="text;html=1;whiteSpace=wrap;strokeColor=none;fillColor=none;align=center;verticalAlign=middle;rounded=0;" vertex="1" parent="1">
          <mxGeometry x="120" y="280" width="50" height="30" as="geometry" />
        </mxCell>
        <mxCell id="PjHwkr3gBRXGpi1NP0Q_-43" value="" style="endArrow=classic;html=1;rounded=0;entryX=0.5;entryY=1;entryDx=0;entryDy=0;" edge="1" parent="1" target="PjHwkr3gBRXGpi1NP0Q_-15">
          <mxGeometry width="50" height="50" relative="1" as="geometry">
            <mxPoint x="389" y="520" as="sourcePoint" />
            <mxPoint x="394" y="519.67" as="targetPoint" />
          </mxGeometry>
        </mxCell>
        <mxCell id="PjHwkr3gBRXGpi1NP0Q_-44" value="0" style="text;html=1;whiteSpace=wrap;strokeColor=none;fillColor=none;align=center;verticalAlign=middle;rounded=0;" vertex="1" parent="1">
          <mxGeometry x="374" y="520" width="30" height="30" as="geometry" />
        </mxCell>
        <mxCell id="PjHwkr3gBRXGpi1NP0Q_-45" value="" style="endArrow=classic;html=1;rounded=0;fillColor=#d80073;strokeColor=#A50040;entryX=0.5;entryY=1;entryDx=0;entryDy=0;" edge="1" parent="1" target="PjHwkr3gBRXGpi1NP0Q_-15">
          <mxGeometry width="50" height="50" relative="1" as="geometry">
            <mxPoint x="360" y="520" as="sourcePoint" />
            <mxPoint x="364" y="467.5" as="targetPoint" />
          </mxGeometry>
        </mxCell>
        <mxCell id="PjHwkr3gBRXGpi1NP0Q_-46" value="cs I" style="text;html=1;whiteSpace=wrap;strokeColor=none;fillColor=none;align=center;verticalAlign=middle;rounded=0;fontColor=light-dark(#000000,#FEA9DF);" vertex="1" parent="1">
          <mxGeometry x="340" y="500" width="30" height="10" as="geometry" />
        </mxCell>
        <mxCell id="PjHwkr3gBRXGpi1NP0Q_-47" value="" style="endArrow=classic;html=1;rounded=0;entryX=0;entryY=0.5;entryDx=0;entryDy=0;" edge="1" parent="1">
          <mxGeometry width="50" height="50" relative="1" as="geometry">
            <mxPoint x="170" y="383.58000000000004" as="sourcePoint" />
            <mxPoint x="280" y="383.58000000000004" as="targetPoint" />
          </mxGeometry>
        </mxCell>
        <mxCell id="PjHwkr3gBRXGpi1NP0Q_-50" value="0" style="text;html=1;whiteSpace=wrap;strokeColor=none;fillColor=none;align=center;verticalAlign=middle;rounded=0;" vertex="1" parent="1">
          <mxGeometry x="130" y="359" width="30" height="30" as="geometry" />
        </mxCell>
        <mxCell id="PjHwkr3gBRXGpi1NP0Q_-53" value="" style="endArrow=classic;html=1;rounded=0;fillColor=#d80073;strokeColor=light-dark(#000000,#0000FF);entryX=0;entryY=0.25;entryDx=0;entryDy=0;" edge="1" parent="1" target="PjHwkr3gBRXGpi1NP0Q_-3">
          <mxGeometry width="50" height="50" relative="1" as="geometry">
            <mxPoint x="235" y="70" as="sourcePoint" />
            <mxPoint x="365" y="180" as="targetPoint" />
          </mxGeometry>
        </mxCell>
        <mxCell id="PjHwkr3gBRXGpi1NP0Q_-54" value="" style="endArrow=classic;html=1;rounded=0;entryX=0;entryY=0.25;entryDx=0;entryDy=0;" edge="1" parent="1" target="PjHwkr3gBRXGpi1NP0Q_-3">
          <mxGeometry width="50" height="50" relative="1" as="geometry">
            <mxPoint x="185" y="96" as="sourcePoint" />
            <mxPoint x="315" y="180" as="targetPoint" />
          </mxGeometry>
        </mxCell>
        <mxCell id="PjHwkr3gBRXGpi1NP0Q_-55" value="WORK" style="text;html=1;whiteSpace=wrap;strokeColor=none;fillColor=none;align=center;verticalAlign=middle;rounded=0;" vertex="1" parent="1">
          <mxGeometry x="140" y="70" width="60" height="30" as="geometry" />
        </mxCell>
        <mxCell id="PjHwkr3gBRXGpi1NP0Q_-56" value="" style="endArrow=classic;html=1;rounded=0;entryX=0;entryY=0.75;entryDx=0;entryDy=0;" edge="1" parent="1" target="PjHwkr3gBRXGpi1NP0Q_-3">
          <mxGeometry width="50" height="50" relative="1" as="geometry">
            <mxPoint x="185" y="129" as="sourcePoint" />
            <mxPoint x="260" y="130" as="targetPoint" />
          </mxGeometry>
        </mxCell>
        <mxCell id="PjHwkr3gBRXGpi1NP0Q_-57" value="IDLE" style="text;html=1;whiteSpace=wrap;strokeColor=none;fillColor=none;align=center;verticalAlign=middle;rounded=0;" vertex="1" parent="1">
          <mxGeometry x="150" y="110" width="40" height="20" as="geometry" />
        </mxCell>
        <mxCell id="PjHwkr3gBRXGpi1NP0Q_-58" value="" style="endArrow=classic;html=1;rounded=0;fillColor=#d80073;strokeColor=light-dark(#000000,#FF0000);entryX=0;entryY=0.75;entryDx=0;entryDy=0;fontColor=light-dark(#000000,#FF0000);" edge="1" parent="1" target="PjHwkr3gBRXGpi1NP0Q_-3">
          <mxGeometry width="50" height="50" relative="1" as="geometry">
            <mxPoint x="235" y="160" as="sourcePoint" />
            <mxPoint x="270" y="106" as="targetPoint" />
          </mxGeometry>
        </mxCell>
        <mxCell id="PjHwkr3gBRXGpi1NP0Q_-59" value="cmp" style="text;html=1;whiteSpace=wrap;strokeColor=none;fillColor=none;align=center;verticalAlign=middle;rounded=0;fontColor=light-dark(#000000,#FF0000);" vertex="1" parent="1">
          <mxGeometry x="205" y="160" width="30" height="10" as="geometry" />
        </mxCell>
        <mxCell id="PjHwkr3gBRXGpi1NP0Q_-66" value="" style="endArrow=classic;html=1;rounded=0;entryX=0;entryY=0.5;entryDx=0;entryDy=0;" edge="1" parent="1" target="PjHwkr3gBRXGpi1NP0Q_-18">
          <mxGeometry width="50" height="50" relative="1" as="geometry">
            <mxPoint x="450" y="540" as="sourcePoint" />
            <mxPoint x="514" y="520" as="targetPoint" />
            <Array as="points">
              <mxPoint x="450" y="566" />
            </Array>
          </mxGeometry>
        </mxCell>
        <mxCell id="PjHwkr3gBRXGpi1NP0Q_-67" value="+1" style="rounded=0;whiteSpace=wrap;html=1;" vertex="1" parent="1">
          <mxGeometry x="495" y="500" width="35" height="40" as="geometry" />
        </mxCell>
        <mxCell id="PjHwkr3gBRXGpi1NP0Q_-69" value="" style="endArrow=classic;html=1;rounded=0;entryX=0;entryY=0.5;entryDx=0;entryDy=0;" edge="1" parent="1" target="PjHwkr3gBRXGpi1NP0Q_-67">
          <mxGeometry width="50" height="50" relative="1" as="geometry">
            <mxPoint x="450" y="520" as="sourcePoint" />
            <mxPoint x="494" y="480" as="targetPoint" />
          </mxGeometry>
        </mxCell>
        <mxCell id="PjHwkr3gBRXGpi1NP0Q_-74" value="mux" style="shape=trapezoid;perimeter=trapezoidPerimeter;whiteSpace=wrap;html=1;fixedSize=1;size=10;direction=south;flipH=0;flipV=1;rotation=0;textDirection=vertical-lr;" vertex="1" parent="1">
          <mxGeometry x="449" y="200" width="21" height="50" as="geometry" />
        </mxCell>
        <mxCell id="PjHwkr3gBRXGpi1NP0Q_-77" value="" style="endArrow=classic;html=1;rounded=0;entryX=0.5;entryY=1;entryDx=0;entryDy=0;exitX=1;exitY=0.5;exitDx=0;exitDy=0;" edge="1" parent="1" source="PjHwkr3gBRXGpi1NP0Q_-2" target="PjHwkr3gBRXGpi1NP0Q_-74">
          <mxGeometry width="50" height="50" relative="1" as="geometry">
            <mxPoint x="380" y="260" as="sourcePoint" />
            <mxPoint x="430" y="210" as="targetPoint" />
          </mxGeometry>
        </mxCell>
        <mxCell id="PjHwkr3gBRXGpi1NP0Q_-78" value="&lt;font style=&quot;font-size: 7px;&quot;&gt;8 bit&lt;/font&gt;" style="text;html=1;whiteSpace=wrap;strokeColor=none;fillColor=none;align=center;verticalAlign=middle;rounded=0;" vertex="1" parent="1">
          <mxGeometry x="400" y="200" width="29" height="30" as="geometry" />
        </mxCell>
        <mxCell id="PjHwkr3gBRXGpi1NP0Q_-79" value="" style="endArrow=classic;html=1;rounded=0;exitX=0.5;exitY=0;exitDx=0;exitDy=0;entryX=0;entryY=0.5;entryDx=0;entryDy=0;" edge="1" parent="1" source="PjHwkr3gBRXGpi1NP0Q_-74" target="PjHwkr3gBRXGpi1NP0Q_-82">
          <mxGeometry width="50" height="50" relative="1" as="geometry">
            <mxPoint x="520" y="240" as="sourcePoint" />
            <mxPoint x="530" y="225" as="targetPoint" />
            <Array as="points">
              <mxPoint x="550" y="225" />
            </Array>
          </mxGeometry>
        </mxCell>
        <mxCell id="PjHwkr3gBRXGpi1NP0Q_-80" value="&lt;font style=&quot;font-size: 7px;&quot;&gt;1 bit&lt;/font&gt;" style="text;html=1;whiteSpace=wrap;strokeColor=none;fillColor=none;align=center;verticalAlign=middle;rounded=0;" vertex="1" parent="1">
          <mxGeometry x="480" y="200" width="40" height="30" as="geometry" />
        </mxCell>
        <mxCell id="PjHwkr3gBRXGpi1NP0Q_-81" value="" style="endArrow=classic;html=1;rounded=0;exitX=1;exitY=0.25;exitDx=0;exitDy=0;entryX=0;entryY=0.5;entryDx=0;entryDy=0;" edge="1" parent="1" source="PjHwkr3gBRXGpi1NP0Q_-15" target="PjHwkr3gBRXGpi1NP0Q_-74">
          <mxGeometry width="50" height="50" relative="1" as="geometry">
            <mxPoint x="390" y="370" as="sourcePoint" />
            <mxPoint x="440" y="320" as="targetPoint" />
            <Array as="points">
              <mxPoint x="620" y="453" />
              <mxPoint x="620" y="180" />
              <mxPoint x="460" y="180" />
            </Array>
          </mxGeometry>
        </mxCell>
        <mxCell id="PjHwkr3gBRXGpi1NP0Q_-82" value="mux" style="shape=trapezoid;perimeter=trapezoidPerimeter;whiteSpace=wrap;html=1;fixedSize=1;size=10;direction=south;flipH=0;flipV=1;rotation=0;textDirection=vertical-lr;" vertex="1" parent="1">
          <mxGeometry x="540" y="280" width="21" height="50" as="geometry" />
        </mxCell>
        <mxCell id="PjHwkr3gBRXGpi1NP0Q_-83" value="" style="endArrow=classic;html=1;rounded=0;exitX=1;exitY=0.25;exitDx=0;exitDy=0;entryX=0.718;entryY=1.016;entryDx=0;entryDy=0;entryPerimeter=0;" edge="1" parent="1" source="PjHwkr3gBRXGpi1NP0Q_-1" target="PjHwkr3gBRXGpi1NP0Q_-82">
          <mxGeometry width="50" height="50" relative="1" as="geometry">
            <mxPoint x="410" y="340" as="sourcePoint" />
            <mxPoint x="460" y="290" as="targetPoint" />
          </mxGeometry>
        </mxCell>
        <mxCell id="PjHwkr3gBRXGpi1NP0Q_-84" value="" style="endArrow=classic;html=1;rounded=0;entryX=0.253;entryY=1.016;entryDx=0;entryDy=0;entryPerimeter=0;" edge="1" parent="1" target="PjHwkr3gBRXGpi1NP0Q_-82">
          <mxGeometry width="50" height="50" relative="1" as="geometry">
            <mxPoint x="500" y="318" as="sourcePoint" />
            <mxPoint x="500" y="320" as="targetPoint" />
          </mxGeometry>
        </mxCell>
        <mxCell id="PjHwkr3gBRXGpi1NP0Q_-85" value="0" style="text;html=1;whiteSpace=wrap;strokeColor=none;fillColor=none;align=center;verticalAlign=middle;rounded=0;" vertex="1" parent="1">
          <mxGeometry x="480" y="300" width="20" height="20" as="geometry" />
        </mxCell>
        <mxCell id="PjHwkr3gBRXGpi1NP0Q_-87" value="" style="endArrow=none;html=1;rounded=0;exitX=1.003;exitY=0.826;exitDx=0;exitDy=0;exitPerimeter=0;" edge="1" parent="1" source="PjHwkr3gBRXGpi1NP0Q_-15">
          <mxGeometry width="50" height="50" relative="1" as="geometry">
            <mxPoint x="390" y="530" as="sourcePoint" />
            <mxPoint x="450" y="540" as="targetPoint" />
            <Array as="points">
              <mxPoint x="450" y="481" />
            </Array>
          </mxGeometry>
        </mxCell>
        <mxCell id="PjHwkr3gBRXGpi1NP0Q_-88" value="" style="endArrow=classic;html=1;rounded=0;entryX=1;entryY=0.5;entryDx=0;entryDy=0;exitX=1;exitY=0.5;exitDx=0;exitDy=0;" edge="1" parent="1" source="PjHwkr3gBRXGpi1NP0Q_-67" target="PjHwkr3gBRXGpi1NP0Q_-15">
          <mxGeometry width="50" height="50" relative="1" as="geometry">
            <mxPoint x="585" y="485" as="sourcePoint" />
            <mxPoint x="560" y="470" as="targetPoint" />
            <Array as="points">
              <mxPoint x="584" y="520" />
              <mxPoint x="584" y="465" />
            </Array>
          </mxGeometry>
        </mxCell>
        <mxCell id="PjHwkr3gBRXGpi1NP0Q_-93" value="" style="endArrow=classic;html=1;rounded=0;exitX=1.004;exitY=0.722;exitDx=0;exitDy=0;entryX=0;entryY=0.25;entryDx=0;entryDy=0;exitPerimeter=0;" edge="1" parent="1" source="PjHwkr3gBRXGpi1NP0Q_-21" target="PjHwkr3gBRXGpi1NP0Q_-17">
          <mxGeometry width="50" height="50" relative="1" as="geometry">
            <mxPoint x="390" y="440" as="sourcePoint" />
            <mxPoint x="440" y="390" as="targetPoint" />
          </mxGeometry>
        </mxCell>
        <mxCell id="PjHwkr3gBRXGpi1NP0Q_-94" value="" style="endArrow=classic;html=1;rounded=0;entryX=0;entryY=0.75;entryDx=0;entryDy=0;" edge="1" parent="1" target="PjHwkr3gBRXGpi1NP0Q_-17">
          <mxGeometry width="50" height="50" relative="1" as="geometry">
            <mxPoint x="430" y="453" as="sourcePoint" />
            <mxPoint x="440" y="400" as="targetPoint" />
            <Array as="points">
              <mxPoint x="430" y="405" />
            </Array>
          </mxGeometry>
        </mxCell>
        <mxCell id="PjHwkr3gBRXGpi1NP0Q_-95" value="+" style="rounded=0;whiteSpace=wrap;html=1;" vertex="1" parent="1">
          <mxGeometry x="465" y="360" width="20" height="20" as="geometry" />
        </mxCell>
        <mxCell id="PjHwkr3gBRXGpi1NP0Q_-96" value="" style="endArrow=classic;html=1;rounded=0;exitX=1;exitY=0.5;exitDx=0;exitDy=0;entryX=1;entryY=0.75;entryDx=0;entryDy=0;" edge="1" parent="1" source="PjHwkr3gBRXGpi1NP0Q_-17" target="PjHwkr3gBRXGpi1NP0Q_-95">
          <mxGeometry width="50" height="50" relative="1" as="geometry">
            <mxPoint x="510" y="420" as="sourcePoint" />
            <mxPoint x="560" y="370" as="targetPoint" />
            <Array as="points">
              <mxPoint x="530" y="400" />
              <mxPoint x="530" y="375" />
            </Array>
          </mxGeometry>
        </mxCell>
        <mxCell id="PjHwkr3gBRXGpi1NP0Q_-97" value="" style="endArrow=classic;html=1;rounded=0;exitX=0.5;exitY=0;exitDx=0;exitDy=0;entryX=1;entryY=0.25;entryDx=0;entryDy=0;" edge="1" parent="1" source="PjHwkr3gBRXGpi1NP0Q_-82" target="PjHwkr3gBRXGpi1NP0Q_-95">
          <mxGeometry width="50" height="50" relative="1" as="geometry">
            <mxPoint x="580" y="380" as="sourcePoint" />
            <mxPoint x="630" y="330" as="targetPoint" />
            <Array as="points">
              <mxPoint x="590" y="305" />
              <mxPoint x="590" y="365" />
            </Array>
          </mxGeometry>
        </mxCell>
        <mxCell id="PjHwkr3gBRXGpi1NP0Q_-98" value="" style="endArrow=classic;html=1;rounded=0;exitX=0;exitY=0.5;exitDx=0;exitDy=0;entryX=1;entryY=0.218;entryDx=0;entryDy=0;entryPerimeter=0;" edge="1" parent="1" source="PjHwkr3gBRXGpi1NP0Q_-95" target="PjHwkr3gBRXGpi1NP0Q_-21">
          <mxGeometry width="50" height="50" relative="1" as="geometry">
            <mxPoint x="410" y="400" as="sourcePoint" />
            <mxPoint x="460" y="350" as="targetPoint" />
          </mxGeometry>
        </mxCell>
        <mxCell id="PjHwkr3gBRXGpi1NP0Q_-99" value="" style="endArrow=classic;html=1;rounded=0;fillColor=#6a00ff;strokeColor=#3700CC;entryX=1;entryY=0.5;entryDx=0;entryDy=0;" edge="1" parent="1" target="PjHwkr3gBRXGpi1NP0Q_-17">
          <mxGeometry width="50" height="50" relative="1" as="geometry">
            <mxPoint x="510" y="430" as="sourcePoint" />
            <mxPoint x="559" y="440" as="targetPoint" />
          </mxGeometry>
        </mxCell>
        <mxCell id="PjHwkr3gBRXGpi1NP0Q_-100" value="&lt;font style=&quot;font-size: 10px;&quot;&gt;latch&lt;/font&gt;" style="text;html=1;whiteSpace=wrap;strokeColor=none;fillColor=none;align=center;verticalAlign=middle;rounded=0;fontColor=light-dark(#000000, #efc0ff);" vertex="1" parent="1">
          <mxGeometry x="500" y="400" width="36" height="30" as="geometry" />
        </mxCell>
        <mxCell id="PjHwkr3gBRXGpi1NP0Q_-104" value="&lt;font style=&quot;font-size: 7px;&quot;&gt;8 bit&lt;/font&gt;" style="text;html=1;whiteSpace=wrap;strokeColor=none;fillColor=none;align=center;verticalAlign=middle;rounded=0;" vertex="1" parent="1">
          <mxGeometry x="503.5" y="270" width="29" height="30" as="geometry" />
        </mxCell>
        <mxCell id="PjHwkr3gBRXGpi1NP0Q_-105" value="&lt;font style=&quot;font-size: 7px;&quot;&gt;8 bit&lt;/font&gt;" style="text;html=1;whiteSpace=wrap;strokeColor=none;fillColor=none;align=center;verticalAlign=middle;rounded=0;" vertex="1" parent="1">
          <mxGeometry x="561" y="280" width="29" height="30" as="geometry" />
        </mxCell>
        <mxCell id="PjHwkr3gBRXGpi1NP0Q_-106" value="" style="endArrow=classic;html=1;rounded=0;exitX=1;exitY=0.75;exitDx=0;exitDy=0;" edge="1" parent="1" source="PjHwkr3gBRXGpi1NP0Q_-3">
          <mxGeometry width="50" height="50" relative="1" as="geometry">
            <mxPoint x="420" y="170" as="sourcePoint" />
            <mxPoint x="470" y="130" as="targetPoint" />
          </mxGeometry>
        </mxCell>
        <mxCell id="PjHwkr3gBRXGpi1NP0Q_-107" value="busy_o" style="text;html=1;whiteSpace=wrap;strokeColor=none;fillColor=none;align=center;verticalAlign=middle;rounded=0;" vertex="1" parent="1">
          <mxGeometry x="410" y="105" width="60" height="30" as="geometry" />
        </mxCell>
        <mxCell id="PjHwkr3gBRXGpi1NP0Q_-108" value="&lt;font style=&quot;font-size: 7px;&quot;&gt;16 bit&lt;/font&gt;" style="text;html=1;whiteSpace=wrap;strokeColor=none;fillColor=none;align=center;verticalAlign=middle;rounded=0;" vertex="1" parent="1">
          <mxGeometry x="494" y="370" width="29" height="30" as="geometry" />
        </mxCell>
        <mxCell id="PjHwkr3gBRXGpi1NP0Q_-111" value="&lt;font style=&quot;font-size: 7px;&quot;&gt;16 bit&lt;/font&gt;" style="text;html=1;whiteSpace=wrap;strokeColor=none;fillColor=none;align=center;verticalAlign=middle;rounded=0;" vertex="1" parent="1">
          <mxGeometry x="429" y="350" width="24" height="20" as="geometry" />
        </mxCell>
        <mxCell id="PjHwkr3gBRXGpi1NP0Q_-112" value="" style="endArrow=classic;html=1;rounded=0;entryX=0;entryY=0.5;entryDx=0;entryDy=0;fillColor=#008a00;strokeColor=#005700;" edge="1" parent="1" target="PjHwkr3gBRXGpi1NP0Q_-2">
          <mxGeometry width="50" height="50" relative="1" as="geometry">
            <mxPoint x="240" y="250" as="sourcePoint" />
            <mxPoint x="260" y="240" as="targetPoint" />
          </mxGeometry>
        </mxCell>
        <mxCell id="PjHwkr3gBRXGpi1NP0Q_-113" value="&lt;font style=&quot;color: light-dark(rgb(0, 0, 0), rgb(134, 208, 135));&quot;&gt;clk/rst&lt;/font&gt;" style="text;html=1;whiteSpace=wrap;strokeColor=none;fillColor=none;align=center;verticalAlign=middle;rounded=0;" vertex="1" parent="1">
          <mxGeometry x="205" y="240" width="60" height="30" as="geometry" />
        </mxCell>
        <mxCell id="PjHwkr3gBRXGpi1NP0Q_-114" value="" style="endArrow=classic;html=1;rounded=0;entryX=0;entryY=0.5;entryDx=0;entryDy=0;fillColor=#008a00;strokeColor=#005700;" edge="1" parent="1">
          <mxGeometry width="50" height="50" relative="1" as="geometry">
            <mxPoint x="240" y="330" as="sourcePoint" />
            <mxPoint x="280" y="305" as="targetPoint" />
          </mxGeometry>
        </mxCell>
        <mxCell id="PjHwkr3gBRXGpi1NP0Q_-115" value="&lt;font style=&quot;color: light-dark(rgb(0, 0, 0), rgb(134, 208, 135));&quot;&gt;clk/rst&lt;/font&gt;" style="text;html=1;whiteSpace=wrap;strokeColor=none;fillColor=none;align=center;verticalAlign=middle;rounded=0;" vertex="1" parent="1">
          <mxGeometry x="205" y="320" width="60" height="30" as="geometry" />
        </mxCell>
        <mxCell id="PjHwkr3gBRXGpi1NP0Q_-116" value="" style="endArrow=classic;html=1;rounded=0;entryX=0;entryY=0.5;entryDx=0;entryDy=0;fillColor=#008a00;strokeColor=#005700;" edge="1" parent="1">
          <mxGeometry width="50" height="50" relative="1" as="geometry">
            <mxPoint x="240" y="410" as="sourcePoint" />
            <mxPoint x="280" y="385" as="targetPoint" />
          </mxGeometry>
        </mxCell>
        <mxCell id="PjHwkr3gBRXGpi1NP0Q_-117" value="&lt;font style=&quot;color: light-dark(rgb(0, 0, 0), rgb(134, 208, 135));&quot;&gt;clk/rst&lt;/font&gt;" style="text;html=1;whiteSpace=wrap;strokeColor=none;fillColor=none;align=center;verticalAlign=middle;rounded=0;" vertex="1" parent="1">
          <mxGeometry x="205" y="400" width="60" height="30" as="geometry" />
        </mxCell>
        <mxCell id="PjHwkr3gBRXGpi1NP0Q_-119" value="" style="endArrow=classic;html=1;rounded=0;entryX=0.5;entryY=1;entryDx=0;entryDy=0;fillColor=#008a00;strokeColor=#005700;" edge="1" parent="1" target="PjHwkr3gBRXGpi1NP0Q_-15">
          <mxGeometry width="50" height="50" relative="1" as="geometry">
            <mxPoint x="420" y="520" as="sourcePoint" />
            <mxPoint x="470" y="497.5" as="targetPoint" />
          </mxGeometry>
        </mxCell>
        <mxCell id="PjHwkr3gBRXGpi1NP0Q_-120" value="&lt;font style=&quot;color: light-dark(rgb(0, 0, 0), rgb(134, 208, 135));&quot;&gt;clk/rst&lt;/font&gt;" style="text;html=1;whiteSpace=wrap;strokeColor=none;fillColor=none;align=center;verticalAlign=middle;rounded=0;" vertex="1" parent="1">
          <mxGeometry x="393" y="510" width="60" height="30" as="geometry" />
        </mxCell>
        <mxCell id="PjHwkr3gBRXGpi1NP0Q_-123" value="" style="endArrow=classic;html=1;rounded=0;entryX=0.5;entryY=1;entryDx=0;entryDy=0;fillColor=#008a00;strokeColor=#005700;" edge="1" parent="1" target="PjHwkr3gBRXGpi1NP0Q_-3">
          <mxGeometry width="50" height="50" relative="1" as="geometry">
            <mxPoint x="330" y="180" as="sourcePoint" />
            <mxPoint x="350" y="135" as="targetPoint" />
          </mxGeometry>
        </mxCell>
        <mxCell id="PjHwkr3gBRXGpi1NP0Q_-124" value="&lt;font style=&quot;color: light-dark(rgb(0, 0, 0), rgb(134, 208, 135));&quot;&gt;clk/rst&lt;/font&gt;" style="text;html=1;whiteSpace=wrap;strokeColor=none;fillColor=none;align=center;verticalAlign=middle;rounded=0;" vertex="1" parent="1">
          <mxGeometry x="270" y="150" width="60" height="30" as="geometry" />
        </mxCell>
        <mxCell id="PjHwkr3gBRXGpi1NP0Q_-126" value="" style="endArrow=classic;html=1;rounded=0;fillColor=#d80073;strokeColor=light-dark(#000000,#FF0000);fontColor=light-dark(#000000,#FF0000);exitX=0.5;exitY=1;exitDx=0;exitDy=0;" edge="1" parent="1" source="PjHwkr3gBRXGpi1NP0Q_-18">
          <mxGeometry width="50" height="50" relative="1" as="geometry">
            <mxPoint x="570" y="631" as="sourcePoint" />
            <mxPoint x="544" y="620" as="targetPoint" />
          </mxGeometry>
        </mxCell>
        <mxCell id="PjHwkr3gBRXGpi1NP0Q_-127" value="cmp" style="text;html=1;whiteSpace=wrap;strokeColor=none;fillColor=none;align=center;verticalAlign=middle;rounded=0;fontColor=light-dark(#000000,#FF0000);" vertex="1" parent="1">
          <mxGeometry x="550" y="590" width="20" height="20" as="geometry" />
        </mxCell>
        <mxCell id="PjHwkr3gBRXGpi1NP0Q_-128" value="" style="endArrow=classic;html=1;rounded=0;exitX=0.5;exitY=1;exitDx=0;exitDy=0;entryX=0.5;entryY=0;entryDx=0;entryDy=0;" edge="1" parent="1" source="PjHwkr3gBRXGpi1NP0Q_-21" target="PjHwkr3gBRXGpi1NP0Q_-19">
          <mxGeometry width="50" height="50" relative="1" as="geometry">
            <mxPoint x="260" y="540" as="sourcePoint" />
            <mxPoint x="310" y="490" as="targetPoint" />
          </mxGeometry>
        </mxCell>
        <mxCell id="PjHwkr3gBRXGpi1NP0Q_-129" value="" style="endArrow=classic;html=1;rounded=0;fillColor=#d80073;strokeColor=light-dark(#000000,#FF0000);fontColor=light-dark(#000000,#FF0000);exitX=0.5;exitY=1;exitDx=0;exitDy=0;entryX=0.5;entryY=0;entryDx=0;entryDy=0;" edge="1" parent="1" target="PjHwkr3gBRXGpi1NP0Q_-19">
          <mxGeometry width="50" height="50" relative="1" as="geometry">
            <mxPoint x="299.65999999999997" y="545" as="sourcePoint" />
            <mxPoint x="299.65999999999997" y="585" as="targetPoint" />
          </mxGeometry>
        </mxCell>
        <mxCell id="PjHwkr3gBRXGpi1NP0Q_-130" value="cmp" style="text;html=1;whiteSpace=wrap;strokeColor=none;fillColor=none;align=center;verticalAlign=middle;rounded=0;fontColor=light-dark(#000000,#FF0000);" vertex="1" parent="1">
          <mxGeometry x="290" y="560" width="20" height="20" as="geometry" />
        </mxCell>
        <mxCell id="PjHwkr3gBRXGpi1NP0Q_-131" value="" style="endArrow=classic;html=1;rounded=0;fillColor=#d80073;strokeColor=light-dark(#000000,#FF0000);fontColor=light-dark(#000000,#FF0000);entryX=1;entryY=0.5;entryDx=0;entryDy=0;" edge="1" parent="1" target="PjHwkr3gBRXGpi1NP0Q_-15">
          <mxGeometry width="50" height="50" relative="1" as="geometry">
            <mxPoint x="480" y="480" as="sourcePoint" />
            <mxPoint x="490.34000000000003" y="510" as="targetPoint" />
          </mxGeometry>
        </mxCell>
        <mxCell id="PjHwkr3gBRXGpi1NP0Q_-132" value="!cmp" style="text;html=1;whiteSpace=wrap;strokeColor=none;fillColor=none;align=center;verticalAlign=middle;rounded=0;fontColor=light-dark(#000000,#FF0000);" vertex="1" parent="1">
          <mxGeometry x="480" y="460" width="20" height="30" as="geometry" />
        </mxCell>
        <mxCell id="PjHwkr3gBRXGpi1NP0Q_-133" value="start_i" style="text;html=1;whiteSpace=wrap;strokeColor=none;fillColor=none;align=center;verticalAlign=middle;rounded=0;fontColor=light-dark(#000000,#0000FF);" vertex="1" parent="1">
          <mxGeometry x="210" y="180" width="50" height="30" as="geometry" />
        </mxCell>
        <mxCell id="PjHwkr3gBRXGpi1NP0Q_-134" value="" style="endArrow=classic;html=1;rounded=0;fillColor=#d80073;strokeColor=light-dark(#000000,#0000FF);entryX=0;entryY=0.25;entryDx=0;entryDy=0;" edge="1" parent="1">
          <mxGeometry width="50" height="50" relative="1" as="geometry">
            <mxPoint x="255" y="200" as="sourcePoint" />
            <mxPoint x="280" y="226" as="targetPoint" />
          </mxGeometry>
        </mxCell>
        <mxCell id="PjHwkr3gBRXGpi1NP0Q_-135" value="start_i" style="text;html=1;whiteSpace=wrap;strokeColor=none;fillColor=none;align=center;verticalAlign=middle;rounded=0;fontColor=light-dark(#000000,#0000FF);" vertex="1" parent="1">
          <mxGeometry x="210" y="262" width="50" height="30" as="geometry" />
        </mxCell>
        <mxCell id="PjHwkr3gBRXGpi1NP0Q_-136" value="" style="endArrow=classic;html=1;rounded=0;fillColor=#d80073;strokeColor=light-dark(#000000,#0000FF);entryX=0;entryY=0.5;entryDx=0;entryDy=0;" edge="1" parent="1" target="PjHwkr3gBRXGpi1NP0Q_-1">
          <mxGeometry width="50" height="50" relative="1" as="geometry">
            <mxPoint x="255" y="282" as="sourcePoint" />
            <mxPoint x="280" y="308" as="targetPoint" />
          </mxGeometry>
        </mxCell>
        <mxCell id="PjHwkr3gBRXGpi1NP0Q_-137" value="start_i" style="text;html=1;whiteSpace=wrap;strokeColor=none;fillColor=none;align=center;verticalAlign=middle;rounded=0;fontColor=light-dark(#000000,#0000FF);" vertex="1" parent="1">
          <mxGeometry x="210" y="337" width="50" height="30" as="geometry" />
        </mxCell>
        <mxCell id="PjHwkr3gBRXGpi1NP0Q_-138" value="" style="endArrow=classic;html=1;rounded=0;fillColor=#d80073;strokeColor=light-dark(#000000,#0000FF);entryX=0;entryY=0.25;entryDx=0;entryDy=0;" edge="1" parent="1">
          <mxGeometry width="50" height="50" relative="1" as="geometry">
            <mxPoint x="255" y="357" as="sourcePoint" />
            <mxPoint x="280" y="383" as="targetPoint" />
          </mxGeometry>
        </mxCell>
      </root>
    </mxGraphModel>
  </diagram>
</mxfile>
